<svg width="660" height="386" viewBox="0 0 660 386" fill="none" xmlns="http://www.w3.org/2000/svg">
<rect x="351.173" y="1.39343" width="244.382" height="46.9882" rx="23.4941" fill="#78BAC9" stroke="black" stroke-width="2"/>
<rect x="61.5645" y="1.39343" width="245.822" height="46.9882" rx="23.4941" fill="#D9D9D9" stroke="black" stroke-width="2" stroke-dasharray="4 4"/>
<rect x="1.04987" y="82.0798" width="156.491" height="36.9024" rx="18.4512" fill="#D9D9D9" stroke="#51AABE" stroke-width="2" stroke-dasharray="4 4"/>
<rect x="502.458" y="82.0798" width="156.491" height="36.9024" rx="18.4512" fill="#D9D9D9" stroke="#51AABE" stroke-width="2" stroke-dasharray="4 4"/>
<rect x="42.8337" y="337.107" width="244.382" height="46.9882" rx="23.4941" fill="#809DD4" stroke="black" stroke-width="2"/>
<rect x="372.785" y="337.107" width="244.382" height="46.9882" rx="23.4941" fill="#8D98D2" stroke="black" stroke-width="2"/>
<rect x="207.089" y="171.411" width="245.822" height="46.9882" rx="23.4941" fill="#85B1CF" stroke="black" stroke-width="2"/>
<path d="M123.178 25.6399C123.178 27.2399 122.871 28.5799 122.258 29.6599C121.644 30.7399 120.751 31.5533 119.578 32.0999C118.418 32.6466 117.018 32.9199 115.378 32.9199H111.338V18.6399H115.818C117.311 18.6399 118.604 18.9066 119.698 19.4399C120.804 19.9733 121.658 20.7599 122.258 21.7999C122.871 22.8266 123.178 24.1066 123.178 25.6399ZM120.038 25.7199C120.038 24.6666 119.884 23.7999 119.578 23.1199C119.271 22.4399 118.811 21.9399 118.198 21.6199C117.598 21.2866 116.858 21.1199 115.978 21.1199H114.358V30.4199H115.658C117.138 30.4199 118.238 30.0266 118.958 29.2399C119.678 28.4533 120.038 27.2799 120.038 25.7199ZM130.382 21.7799C131.849 21.7799 132.969 22.0999 133.742 22.7399C134.529 23.3666 134.922 24.3333 134.922 25.6399V32.9199H132.842L132.262 31.4399H132.182C131.876 31.8266 131.556 32.1466 131.222 32.3999C130.902 32.6533 130.529 32.8333 130.102 32.9399C129.689 33.0599 129.176 33.1199 128.562 33.1199C127.922 33.1199 127.342 32.9999 126.822 32.7599C126.316 32.5066 125.916 32.1266 125.622 31.6199C125.329 31.0999 125.182 30.4466 125.182 29.6599C125.182 28.4999 125.589 27.6466 126.402 27.0999C127.216 26.5399 128.436 26.2333 130.062 26.1799L131.962 26.1199V25.6399C131.962 25.0666 131.809 24.6466 131.502 24.3799C131.209 24.1133 130.796 23.9799 130.262 23.9799C129.729 23.9799 129.209 24.0599 128.702 24.2199C128.196 24.3666 127.689 24.5533 127.182 24.7799L126.202 22.7599C126.789 22.4533 127.436 22.2133 128.142 22.0399C128.862 21.8666 129.609 21.7799 130.382 21.7799ZM130.802 27.8999C129.842 27.9266 129.176 28.0999 128.802 28.4199C128.429 28.7399 128.242 29.1599 128.242 29.6799C128.242 30.1333 128.376 30.4599 128.642 30.6599C128.909 30.8466 129.256 30.9399 129.682 30.9399C130.322 30.9399 130.862 30.7533 131.302 30.3799C131.742 29.9933 131.962 29.4533 131.962 28.7599V27.8599L130.802 27.8999ZM142.573 30.7399C142.906 30.7399 143.226 30.7066 143.533 30.6399C143.839 30.5733 144.146 30.4933 144.453 30.3999V32.6199C144.133 32.7533 143.733 32.8666 143.253 32.9599C142.786 33.0666 142.273 33.1199 141.713 33.1199C141.059 33.1199 140.473 33.0133 139.953 32.7999C139.446 32.5866 139.039 32.2199 138.733 31.6999C138.439 31.1666 138.293 30.4333 138.293 29.4999V24.2399H136.873V22.9799L138.513 21.9799L139.373 19.6799H141.273V21.9999H144.333V24.2399H141.273V29.4999C141.273 29.9133 141.393 30.2266 141.633 30.4399C141.873 30.6399 142.186 30.7399 142.573 30.7399ZM151.125 21.7799C152.591 21.7799 153.711 22.0999 154.485 22.7399C155.271 23.3666 155.665 24.3333 155.665 25.6399V32.9199H153.585L153.005 31.4399H152.925C152.618 31.8266 152.298 32.1466 151.965 32.3999C151.645 32.6533 151.271 32.8333 150.845 32.9399C150.431 33.0599 149.918 33.1199 149.305 33.1199C148.665 33.1199 148.085 32.9999 147.565 32.7599C147.058 32.5066 146.658 32.1266 146.365 31.6199C146.071 31.0999 145.925 30.4466 145.925 29.6599C145.925 28.4999 146.331 27.6466 147.145 27.0999C147.958 26.5399 149.178 26.2333 150.805 26.1799L152.705 26.1199V25.6399C152.705 25.0666 152.551 24.6466 152.245 24.3799C151.951 24.1133 151.538 23.9799 151.005 23.9799C150.471 23.9799 149.951 24.0599 149.445 24.2199C148.938 24.3666 148.431 24.5533 147.925 24.7799L146.945 22.7599C147.531 22.4533 148.178 22.2133 148.885 22.0399C149.605 21.8666 150.351 21.7799 151.125 21.7799ZM151.545 27.8999C150.585 27.9266 149.918 28.0999 149.545 28.4199C149.171 28.7399 148.985 29.1599 148.985 29.6799C148.985 30.1333 149.118 30.4599 149.385 30.6599C149.651 30.8466 149.998 30.9399 150.425 30.9399C151.065 30.9399 151.605 30.7533 152.045 30.3799C152.485 29.9933 152.705 29.4533 152.705 28.7599V27.8599L151.545 27.8999ZM169.49 32.9199H162.99V31.1999L164.73 30.3999V21.1599L162.99 20.3599V18.6399H169.49V20.3599L167.75 21.1599V30.3999L169.49 31.1999V32.9199ZM177.884 21.7999C179.057 21.7999 179.997 22.1199 180.704 22.7599C181.41 23.3866 181.764 24.3999 181.764 25.7999V32.9199H178.784V26.5399C178.784 25.7533 178.644 25.1666 178.364 24.7799C178.084 24.3799 177.637 24.1799 177.024 24.1799C176.117 24.1799 175.497 24.4933 175.164 25.1199C174.83 25.7333 174.664 26.6199 174.664 27.7799V32.9199H171.684V21.9999H173.964L174.364 23.3999H174.524C174.764 23.0266 175.057 22.7266 175.404 22.4999C175.75 22.2599 176.137 22.0866 176.564 21.9799C176.99 21.8599 177.43 21.7999 177.884 21.7999ZM188.368 21.7999C189.035 21.7999 189.635 21.9333 190.168 22.1999C190.701 22.4666 191.155 22.8666 191.528 23.3999H191.608L191.848 21.9999H194.368V32.9399C194.368 33.9799 194.161 34.8533 193.748 35.5599C193.348 36.2666 192.741 36.7999 191.928 37.1599C191.115 37.5333 190.108 37.7199 188.908 37.7199C188.135 37.7199 187.415 37.6733 186.748 37.5799C186.095 37.4866 185.455 37.3199 184.828 37.0799V34.6999C185.281 34.8866 185.735 35.0399 186.188 35.1599C186.655 35.2933 187.128 35.3866 187.608 35.4399C188.101 35.5066 188.595 35.5399 189.088 35.5399C189.861 35.5399 190.435 35.3333 190.808 34.9199C191.195 34.5066 191.388 33.8866 191.388 33.0599V32.8399C191.388 32.6133 191.395 32.3799 191.408 32.1399C191.435 31.8999 191.455 31.6866 191.468 31.4999H191.388C191.015 32.0733 190.568 32.4866 190.048 32.7399C189.528 32.9933 188.941 33.1199 188.288 33.1199C186.995 33.1199 185.981 32.6266 185.248 31.6399C184.528 30.6399 184.168 29.2533 184.168 27.4799C184.168 26.2799 184.335 25.2599 184.668 24.4199C185.001 23.5666 185.481 22.9199 186.108 22.4799C186.748 22.0266 187.501 21.7999 188.368 21.7999ZM189.308 24.2199C188.841 24.2199 188.448 24.3466 188.128 24.5999C187.821 24.8399 187.588 25.2066 187.428 25.6999C187.281 26.1799 187.208 26.7866 187.208 27.5199C187.208 28.6133 187.381 29.4333 187.728 29.9799C188.075 30.5133 188.615 30.7799 189.348 30.7799C189.735 30.7799 190.068 30.7333 190.348 30.6399C190.628 30.5333 190.855 30.3666 191.028 30.1399C191.215 29.8999 191.355 29.5933 191.448 29.2199C191.541 28.8466 191.588 28.3933 191.588 27.8599V27.4999C191.588 26.7133 191.508 26.0799 191.348 25.5999C191.188 25.1199 190.941 24.7733 190.608 24.5599C190.275 24.3333 189.841 24.2199 189.308 24.2199ZM201.984 21.7999C202.998 21.7999 203.864 21.9933 204.584 22.3799C205.318 22.7666 205.884 23.3266 206.284 24.0599C206.684 24.7933 206.884 25.6933 206.884 26.7599V28.1999H199.844C199.871 29.0399 200.118 29.6999 200.584 30.1799C201.064 30.6599 201.724 30.8999 202.564 30.8999C203.271 30.8999 203.911 30.8333 204.484 30.6999C205.058 30.5533 205.651 30.3333 206.264 30.0399V32.3399C205.731 32.6066 205.164 32.7999 204.564 32.9199C203.978 33.0533 203.264 33.1199 202.424 33.1199C201.331 33.1199 200.364 32.9199 199.524 32.5199C198.684 32.1066 198.024 31.4866 197.544 30.6599C197.064 29.8333 196.824 28.7933 196.824 27.5399C196.824 26.2599 197.038 25.1999 197.464 24.3599C197.904 23.5066 198.511 22.8666 199.284 22.4399C200.058 22.0133 200.958 21.7999 201.984 21.7999ZM202.004 23.9199C201.431 23.9199 200.951 24.1066 200.564 24.4799C200.191 24.8533 199.971 25.4333 199.904 26.2199H204.084C204.084 25.7799 204.004 25.3866 203.844 25.0399C203.698 24.6933 203.471 24.4199 203.164 24.2199C202.858 24.0199 202.471 23.9199 202.004 23.9199ZM216.921 29.6799C216.921 30.4133 216.747 31.0399 216.401 31.5599C216.054 32.0666 215.534 32.4533 214.841 32.7199C214.147 32.9866 213.287 33.1199 212.261 33.1199C211.501 33.1199 210.847 33.0666 210.301 32.9599C209.754 32.8666 209.207 32.7066 208.661 32.4799V30.0199C209.247 30.2866 209.881 30.5066 210.561 30.6799C211.241 30.8533 211.841 30.9399 212.361 30.9399C212.947 30.9399 213.361 30.8533 213.601 30.6799C213.854 30.5066 213.981 30.2799 213.981 29.9999C213.981 29.8133 213.927 29.6466 213.821 29.4999C213.727 29.3533 213.514 29.1866 213.181 28.9999C212.847 28.8133 212.327 28.5733 211.621 28.2799C210.941 27.9866 210.381 27.6999 209.941 27.4199C209.501 27.1266 209.174 26.7799 208.961 26.3799C208.747 25.9666 208.641 25.4533 208.641 24.8399C208.641 23.8266 209.034 23.0666 209.821 22.5599C210.607 22.0533 211.654 21.7999 212.961 21.7999C213.641 21.7999 214.287 21.8666 214.901 21.9999C215.514 22.1333 216.147 22.3533 216.801 22.6599L215.901 24.7999C215.541 24.6399 215.194 24.4999 214.861 24.3799C214.527 24.2599 214.201 24.1666 213.881 24.0999C213.574 24.0333 213.254 23.9999 212.921 23.9999C212.481 23.9999 212.147 24.0599 211.921 24.1799C211.707 24.2999 211.601 24.4799 211.601 24.7199C211.601 24.8933 211.654 25.0533 211.761 25.1999C211.881 25.3333 212.101 25.4799 212.421 25.6399C212.754 25.7999 213.241 26.0133 213.881 26.2799C214.507 26.5333 215.047 26.7999 215.501 27.0799C215.954 27.3466 216.301 27.6866 216.541 28.0999C216.794 28.4999 216.921 29.0266 216.921 29.6799ZM223.842 30.7399C224.176 30.7399 224.496 30.7066 224.802 30.6399C225.109 30.5733 225.416 30.4933 225.722 30.3999V32.6199C225.402 32.7533 225.002 32.8666 224.522 32.9599C224.056 33.0666 223.542 33.1199 222.982 33.1199C222.329 33.1199 221.742 33.0133 221.222 32.7999C220.716 32.5866 220.309 32.2199 220.002 31.6999C219.709 31.1666 219.562 30.4333 219.562 29.4999V24.2399H218.142V22.9799L219.782 21.9799L220.642 19.6799H222.542V21.9999H225.602V24.2399H222.542V29.4999C222.542 29.9133 222.662 30.2266 222.902 30.4399C223.142 30.6399 223.456 30.7399 223.842 30.7399ZM230.894 21.9999V32.9199H227.914V21.9999H230.894ZM229.414 17.7199C229.854 17.7199 230.234 17.8266 230.554 18.0399C230.874 18.2399 231.034 18.6199 231.034 19.1799C231.034 19.7266 230.874 20.1066 230.554 20.3199C230.234 20.5333 229.854 20.6399 229.414 20.6399C228.961 20.6399 228.574 20.5333 228.254 20.3199C227.947 20.1066 227.794 19.7266 227.794 19.1799C227.794 18.6199 227.947 18.2399 228.254 18.0399C228.574 17.8266 228.961 17.7199 229.414 17.7199ZM243.928 27.4399C243.928 28.3466 243.801 29.1533 243.548 29.8599C243.308 30.5666 242.954 31.1666 242.488 31.6599C242.034 32.1399 241.481 32.5066 240.828 32.7599C240.174 32.9999 239.434 33.1199 238.608 33.1199C237.848 33.1199 237.141 32.9999 236.488 32.7599C235.848 32.5066 235.294 32.1399 234.828 31.6599C234.361 31.1666 233.994 30.5666 233.728 29.8599C233.474 29.1533 233.348 28.3466 233.348 27.4399C233.348 26.2266 233.561 25.2066 233.988 24.3799C234.414 23.5399 235.028 22.8999 235.828 22.4599C236.628 22.0199 237.574 21.7999 238.668 21.7999C239.694 21.7999 240.601 22.0199 241.388 22.4599C242.174 22.8999 242.794 23.5399 243.248 24.3799C243.701 25.2066 243.928 26.2266 243.928 27.4399ZM236.388 27.4399C236.388 28.1599 236.461 28.7666 236.608 29.2599C236.768 29.7399 237.014 30.1066 237.348 30.3599C237.681 30.5999 238.114 30.7199 238.648 30.7199C239.181 30.7199 239.608 30.5999 239.928 30.3599C240.261 30.1066 240.501 29.7399 240.648 29.2599C240.808 28.7666 240.888 28.1599 240.888 27.4399C240.888 26.7199 240.808 26.1199 240.648 25.6399C240.501 25.1599 240.261 24.7999 239.928 24.5599C239.594 24.3199 239.161 24.1999 238.628 24.1999C237.841 24.1999 237.268 24.4733 236.908 25.0199C236.561 25.5533 236.388 26.3599 236.388 27.4399ZM252.591 21.7999C253.764 21.7999 254.704 22.1199 255.411 22.7599C256.117 23.3866 256.471 24.3999 256.471 25.7999V32.9199H253.491V26.5399C253.491 25.7533 253.351 25.1666 253.071 24.7799C252.791 24.3799 252.344 24.1799 251.731 24.1799C250.824 24.1799 250.204 24.4933 249.871 25.1199C249.537 25.7333 249.371 26.6199 249.371 27.7799V32.9199H246.391V21.9999H248.671L249.071 23.3999H249.231C249.471 23.0266 249.764 22.7266 250.111 22.4999C250.457 22.2599 250.844 22.0866 251.271 21.9799C251.697 21.8599 252.137 21.7999 252.591 21.7999Z" fill="black"/>
<path d="M48.7742 104.324C48.7742 105.164 48.5675 105.897 48.1542 106.524C47.7408 107.15 47.1408 107.637 46.3542 107.984C45.5808 108.317 44.6342 108.484 43.5142 108.484C43.0208 108.484 42.5342 108.45 42.0542 108.384C41.5875 108.317 41.1342 108.224 40.6942 108.104C40.2675 107.97 39.8608 107.81 39.4742 107.624V104.804C40.1542 105.097 40.8542 105.37 41.5742 105.624C42.3075 105.864 43.0342 105.984 43.7542 105.984C44.2475 105.984 44.6408 105.917 44.9342 105.784C45.2408 105.65 45.4608 105.47 45.5942 105.244C45.7408 105.017 45.8142 104.757 45.8142 104.464C45.8142 104.104 45.6875 103.797 45.4342 103.544C45.1942 103.29 44.8675 103.057 44.4542 102.844C44.0408 102.617 43.5675 102.377 43.0342 102.124C42.7008 101.964 42.3408 101.777 41.9542 101.564C41.5675 101.337 41.1942 101.064 40.8342 100.744C40.4875 100.41 40.2008 100.01 39.9742 99.5437C39.7475 99.077 39.6342 98.517 39.6342 97.8637C39.6342 97.0104 39.8275 96.2837 40.2142 95.6837C40.6142 95.0704 41.1742 94.6037 41.8942 94.2837C42.6275 93.9637 43.4875 93.8037 44.4742 93.8037C45.2208 93.8037 45.9275 93.8904 46.5942 94.0637C47.2742 94.237 47.9808 94.4837 48.7142 94.8037L47.7342 97.1637C47.0808 96.897 46.4942 96.6904 45.9742 96.5437C45.4542 96.397 44.9208 96.3237 44.3742 96.3237C44.0008 96.3237 43.6808 96.3837 43.4142 96.5037C43.1475 96.6237 42.9408 96.7904 42.7942 97.0037C42.6608 97.217 42.5942 97.4704 42.5942 97.7637C42.5942 98.097 42.6942 98.3837 42.8942 98.6237C43.0942 98.8504 43.3942 99.0704 43.7942 99.2837C44.1942 99.497 44.6942 99.7504 45.2942 100.044C46.0275 100.39 46.6475 100.75 47.1542 101.124C47.6742 101.497 48.0742 101.937 48.3542 102.444C48.6342 102.95 48.7742 103.577 48.7742 104.324ZM55.6298 97.1637C56.6431 97.1637 57.5098 97.357 58.2298 97.7437C58.9631 98.1304 59.5298 98.6904 59.9298 99.4237C60.3298 100.157 60.5298 101.057 60.5298 102.124V103.564H53.4898C53.5165 104.404 53.7631 105.064 54.2298 105.544C54.7098 106.024 55.3698 106.264 56.2098 106.264C56.9165 106.264 57.5565 106.197 58.1298 106.064C58.7031 105.917 59.2965 105.697 59.9098 105.404V107.704C59.3765 107.97 58.8098 108.164 58.2098 108.284C57.6231 108.417 56.9098 108.484 56.0698 108.484C54.9765 108.484 54.0098 108.284 53.1698 107.884C52.3298 107.47 51.6698 106.85 51.1898 106.024C50.7098 105.197 50.4698 104.157 50.4698 102.904C50.4698 101.624 50.6831 100.564 51.1098 99.7237C51.5498 98.8704 52.1565 98.2304 52.9298 97.8037C53.7031 97.377 54.6031 97.1637 55.6298 97.1637ZM55.6498 99.2837C55.0765 99.2837 54.5965 99.4704 54.2098 99.8437C53.8365 100.217 53.6165 100.797 53.5498 101.584H57.7298C57.7298 101.144 57.6498 100.75 57.4898 100.404C57.3431 100.057 57.1165 99.7837 56.8098 99.5837C56.5031 99.3837 56.1165 99.2837 55.6498 99.2837ZM67.3862 108.484C66.3062 108.484 65.3862 108.29 64.6262 107.904C63.8662 107.504 63.2862 106.89 62.8862 106.064C62.4862 105.237 62.2862 104.177 62.2862 102.884C62.2862 101.55 62.5129 100.464 62.9662 99.6237C63.4195 98.7837 64.0462 98.1637 64.8462 97.7637C65.6595 97.3637 66.5929 97.1637 67.6462 97.1637C68.3929 97.1637 69.0395 97.237 69.5862 97.3837C70.1462 97.5304 70.6329 97.7037 71.0462 97.9037L70.1662 100.204C69.6995 100.017 69.2595 99.8637 68.8462 99.7437C68.4462 99.6237 68.0462 99.5637 67.6462 99.5637C67.1262 99.5637 66.6929 99.6904 66.3462 99.9437C65.9995 100.184 65.7395 100.55 65.5662 101.044C65.4062 101.524 65.3262 102.13 65.3262 102.864C65.3262 103.584 65.4129 104.184 65.5862 104.664C65.7729 105.13 66.0395 105.484 66.3862 105.724C66.7329 105.95 67.1529 106.064 67.6462 106.064C68.2729 106.064 68.8262 105.984 69.3062 105.824C69.7862 105.65 70.2529 105.417 70.7062 105.124V107.664C70.2529 107.957 69.7729 108.164 69.2662 108.284C68.7729 108.417 68.1462 108.484 67.3862 108.484ZM83.2396 97.3637V108.284H80.9596L80.5596 106.884H80.3996C80.173 107.257 79.8796 107.564 79.5196 107.804C79.173 108.03 78.7863 108.197 78.3596 108.304C77.933 108.424 77.493 108.484 77.0396 108.484C76.2663 108.484 75.5863 108.344 74.9996 108.064C74.413 107.784 73.9596 107.35 73.6396 106.764C73.3196 106.177 73.1596 105.417 73.1596 104.484V97.3637H76.1396V103.744C76.1396 104.517 76.2796 105.104 76.5596 105.504C76.8396 105.904 77.2863 106.104 77.8996 106.104C78.513 106.104 78.9863 105.964 79.3196 105.684C79.6663 105.404 79.9063 104.997 80.0396 104.464C80.1863 103.93 80.2596 103.277 80.2596 102.504V97.3637H83.2396ZM92.4642 97.1637C92.6108 97.1637 92.7842 97.1704 92.9842 97.1837C93.1842 97.197 93.3442 97.217 93.4642 97.2437L93.2442 100.044C93.1508 100.017 93.0108 99.997 92.8242 99.9837C92.6508 99.957 92.4975 99.9437 92.3642 99.9437C91.9775 99.9437 91.6042 99.997 91.2442 100.104C90.8842 100.197 90.5575 100.35 90.2642 100.564C89.9842 100.777 89.7575 101.064 89.5842 101.424C89.4242 101.77 89.3442 102.204 89.3442 102.724V108.284H86.3642V97.3637H88.6242L89.0642 99.2037H89.2042C89.4175 98.8304 89.6842 98.4904 90.0042 98.1837C90.3242 97.877 90.6908 97.6304 91.1042 97.4437C91.5308 97.257 91.9842 97.1637 92.4642 97.1637ZM98.4262 97.3637V108.284H95.4462V97.3637H98.4262ZM96.9462 93.0837C97.3862 93.0837 97.7662 93.1904 98.0862 93.4037C98.4062 93.6037 98.5662 93.9837 98.5662 94.5437C98.5662 95.0904 98.4062 95.4704 98.0862 95.6837C97.7662 95.897 97.3862 96.0037 96.9462 96.0037C96.4929 96.0037 96.1062 95.897 95.7862 95.6837C95.4795 95.4704 95.3262 95.0904 95.3262 94.5437C95.3262 93.9837 95.4795 93.6037 95.7862 93.4037C96.1062 93.1904 96.4929 93.0837 96.9462 93.0837ZM106.14 106.104C106.473 106.104 106.793 106.07 107.1 106.004C107.407 105.937 107.713 105.857 108.02 105.764V107.984C107.7 108.117 107.3 108.23 106.82 108.324C106.353 108.43 105.84 108.484 105.28 108.484C104.627 108.484 104.04 108.377 103.52 108.164C103.013 107.95 102.607 107.584 102.3 107.064C102.007 106.53 101.86 105.797 101.86 104.864V99.6037H100.44V98.3437L102.08 97.3437L102.94 95.0437H104.84V97.3637H107.9V99.6037H104.84V104.864C104.84 105.277 104.96 105.59 105.2 105.804C105.44 106.004 105.753 106.104 106.14 106.104ZM108.652 97.3637H111.912L113.972 103.504C114.038 103.704 114.092 103.904 114.132 104.104C114.185 104.304 114.225 104.51 114.252 104.724C114.292 104.937 114.318 105.164 114.332 105.404H114.392C114.432 105.057 114.485 104.73 114.552 104.424C114.632 104.104 114.718 103.797 114.812 103.504L116.832 97.3637H120.032L115.412 109.684C115.132 110.43 114.765 111.057 114.312 111.564C113.872 112.07 113.358 112.45 112.772 112.704C112.185 112.957 111.545 113.084 110.852 113.084C110.518 113.084 110.225 113.064 109.972 113.024C109.732 112.997 109.518 112.964 109.332 112.924V110.564C109.478 110.59 109.652 110.617 109.852 110.644C110.065 110.67 110.285 110.684 110.512 110.684C110.925 110.684 111.278 110.597 111.572 110.424C111.878 110.25 112.132 110.01 112.332 109.704C112.532 109.41 112.692 109.09 112.812 108.744L112.992 108.204L108.652 97.3637Z" fill="#51AABE"/>
<path d="M550.182 104.324C550.182 105.164 549.976 105.897 549.562 106.524C549.149 107.15 548.549 107.637 547.762 107.984C546.989 108.317 546.042 108.484 544.922 108.484C544.429 108.484 543.942 108.45 543.462 108.384C542.996 108.317 542.542 108.224 542.102 108.104C541.676 107.97 541.269 107.81 540.882 107.624V104.804C541.562 105.097 542.262 105.37 542.982 105.624C543.716 105.864 544.442 105.984 545.162 105.984C545.656 105.984 546.049 105.917 546.342 105.784C546.649 105.65 546.869 105.47 547.002 105.244C547.149 105.017 547.222 104.757 547.222 104.464C547.222 104.104 547.096 103.797 546.842 103.544C546.602 103.29 546.276 103.057 545.862 102.844C545.449 102.617 544.976 102.377 544.442 102.124C544.109 101.964 543.749 101.777 543.362 101.564C542.976 101.337 542.602 101.064 542.242 100.744C541.896 100.41 541.609 100.01 541.382 99.5437C541.156 99.077 541.042 98.517 541.042 97.8637C541.042 97.0104 541.236 96.2837 541.622 95.6837C542.022 95.0704 542.582 94.6037 543.302 94.2837C544.036 93.9637 544.896 93.8037 545.882 93.8037C546.629 93.8037 547.336 93.8904 548.002 94.0637C548.682 94.237 549.389 94.4837 550.122 94.8037L549.142 97.1637C548.489 96.897 547.902 96.6904 547.382 96.5437C546.862 96.397 546.329 96.3237 545.782 96.3237C545.409 96.3237 545.089 96.3837 544.822 96.5037C544.556 96.6237 544.349 96.7904 544.202 97.0037C544.069 97.217 544.002 97.4704 544.002 97.7637C544.002 98.097 544.102 98.3837 544.302 98.6237C544.502 98.8504 544.802 99.0704 545.202 99.2837C545.602 99.497 546.102 99.7504 546.702 100.044C547.436 100.39 548.056 100.75 548.562 101.124C549.082 101.497 549.482 101.937 549.762 102.444C550.042 102.95 550.182 103.577 550.182 104.324ZM557.038 97.1637C558.051 97.1637 558.918 97.357 559.638 97.7437C560.371 98.1304 560.938 98.6904 561.338 99.4237C561.738 100.157 561.938 101.057 561.938 102.124V103.564H554.898C554.925 104.404 555.171 105.064 555.638 105.544C556.118 106.024 556.778 106.264 557.618 106.264C558.325 106.264 558.965 106.197 559.538 106.064C560.111 105.917 560.705 105.697 561.318 105.404V107.704C560.785 107.97 560.218 108.164 559.618 108.284C559.031 108.417 558.318 108.484 557.478 108.484C556.385 108.484 555.418 108.284 554.578 107.884C553.738 107.47 553.078 106.85 552.598 106.024C552.118 105.197 551.878 104.157 551.878 102.904C551.878 101.624 552.091 100.564 552.518 99.7237C552.958 98.8704 553.565 98.2304 554.338 97.8037C555.111 97.377 556.011 97.1637 557.038 97.1637ZM557.058 99.2837C556.485 99.2837 556.005 99.4704 555.618 99.8437C555.245 100.217 555.025 100.797 554.958 101.584H559.138C559.138 101.144 559.058 100.75 558.898 100.404C558.751 100.057 558.525 99.7837 558.218 99.5837C557.911 99.3837 557.525 99.2837 557.058 99.2837ZM568.794 108.484C567.714 108.484 566.794 108.29 566.034 107.904C565.274 107.504 564.694 106.89 564.294 106.064C563.894 105.237 563.694 104.177 563.694 102.884C563.694 101.55 563.921 100.464 564.374 99.6237C564.828 98.7837 565.454 98.1637 566.254 97.7637C567.068 97.3637 568.001 97.1637 569.054 97.1637C569.801 97.1637 570.448 97.237 570.994 97.3837C571.554 97.5304 572.041 97.7037 572.454 97.9037L571.574 100.204C571.108 100.017 570.668 99.8637 570.254 99.7437C569.854 99.6237 569.454 99.5637 569.054 99.5637C568.534 99.5637 568.101 99.6904 567.754 99.9437C567.408 100.184 567.148 100.55 566.974 101.044C566.814 101.524 566.734 102.13 566.734 102.864C566.734 103.584 566.821 104.184 566.994 104.664C567.181 105.13 567.448 105.484 567.794 105.724C568.141 105.95 568.561 106.064 569.054 106.064C569.681 106.064 570.234 105.984 570.714 105.824C571.194 105.65 571.661 105.417 572.114 105.124V107.664C571.661 107.957 571.181 108.164 570.674 108.284C570.181 108.417 569.554 108.484 568.794 108.484ZM584.648 97.3637V108.284H582.368L581.968 106.884H581.808C581.581 107.257 581.288 107.564 580.928 107.804C580.581 108.03 580.194 108.197 579.768 108.304C579.341 108.424 578.901 108.484 578.448 108.484C577.674 108.484 576.994 108.344 576.408 108.064C575.821 107.784 575.368 107.35 575.048 106.764C574.728 106.177 574.568 105.417 574.568 104.484V97.3637H577.548V103.744C577.548 104.517 577.688 105.104 577.968 105.504C578.248 105.904 578.694 106.104 579.308 106.104C579.921 106.104 580.394 105.964 580.728 105.684C581.074 105.404 581.314 104.997 581.448 104.464C581.594 103.93 581.668 103.277 581.668 102.504V97.3637H584.648ZM593.872 97.1637C594.019 97.1637 594.192 97.1704 594.392 97.1837C594.592 97.197 594.752 97.217 594.872 97.2437L594.652 100.044C594.559 100.017 594.419 99.997 594.232 99.9837C594.059 99.957 593.906 99.9437 593.772 99.9437C593.386 99.9437 593.012 99.997 592.652 100.104C592.292 100.197 591.966 100.35 591.672 100.564C591.392 100.777 591.166 101.064 590.992 101.424C590.832 101.77 590.752 102.204 590.752 102.724V108.284H587.772V97.3637H590.032L590.472 99.2037H590.612C590.826 98.8304 591.092 98.4904 591.412 98.1837C591.732 97.877 592.099 97.6304 592.512 97.4437C592.939 97.257 593.392 97.1637 593.872 97.1637ZM599.834 97.3637V108.284H596.854V97.3637H599.834ZM598.354 93.0837C598.794 93.0837 599.174 93.1904 599.494 93.4037C599.814 93.6037 599.974 93.9837 599.974 94.5437C599.974 95.0904 599.814 95.4704 599.494 95.6837C599.174 95.897 598.794 96.0037 598.354 96.0037C597.901 96.0037 597.514 95.897 597.194 95.6837C596.888 95.4704 596.734 95.0904 596.734 94.5437C596.734 93.9837 596.888 93.6037 597.194 93.4037C597.514 93.1904 597.901 93.0837 598.354 93.0837ZM607.548 106.104C607.881 106.104 608.201 106.07 608.508 106.004C608.815 105.937 609.121 105.857 609.428 105.764V107.984C609.108 108.117 608.708 108.23 608.228 108.324C607.761 108.43 607.248 108.484 606.688 108.484C606.035 108.484 605.448 108.377 604.928 108.164C604.421 107.95 604.015 107.584 603.708 107.064C603.415 106.53 603.268 105.797 603.268 104.864V99.6037H601.848V98.3437L603.488 97.3437L604.348 95.0437H606.248V97.3637H609.308V99.6037H606.248V104.864C606.248 105.277 606.368 105.59 606.608 105.804C606.848 106.004 607.161 106.104 607.548 106.104ZM610.06 97.3637H613.32L615.38 103.504C615.447 103.704 615.5 103.904 615.54 104.104C615.593 104.304 615.633 104.51 615.66 104.724C615.7 104.937 615.727 105.164 615.74 105.404H615.8C615.84 105.057 615.893 104.73 615.96 104.424C616.04 104.104 616.127 103.797 616.22 103.504L618.24 97.3637H621.44L616.82 109.684C616.54 110.43 616.173 111.057 615.72 111.564C615.28 112.07 614.767 112.45 614.18 112.704C613.593 112.957 612.953 113.084 612.26 113.084C611.927 113.084 611.633 113.064 611.38 113.024C611.14 112.997 610.927 112.964 610.74 112.924V110.564C610.887 110.59 611.06 110.617 611.26 110.644C611.473 110.67 611.693 110.684 611.92 110.684C612.333 110.684 612.687 110.597 612.98 110.424C613.287 110.25 613.54 110.01 613.74 109.704C613.94 109.41 614.1 109.09 614.22 108.744L614.4 108.204L610.06 97.3637Z" fill="#51AABE"/>
<rect x="251.538" y="248.538" width="156.923" height="36.8971" rx="18.4486" fill="#D9D9D9" stroke="#51AABE" stroke-width="2" stroke-dasharray="4 4"/>
<path d="M299.477 269.802C299.477 270.642 299.271 271.376 298.857 272.002C298.444 272.629 297.844 273.116 297.057 273.462C296.284 273.796 295.337 273.962 294.217 273.962C293.724 273.962 293.237 273.929 292.757 273.862C292.291 273.796 291.837 273.702 291.397 273.582C290.971 273.449 290.564 273.289 290.177 273.102V270.282C290.857 270.576 291.557 270.849 292.277 271.102C293.011 271.342 293.737 271.462 294.457 271.462C294.951 271.462 295.344 271.396 295.637 271.262C295.944 271.129 296.164 270.949 296.297 270.722C296.444 270.496 296.517 270.236 296.517 269.942C296.517 269.582 296.391 269.276 296.137 269.022C295.897 268.769 295.571 268.536 295.157 268.322C294.744 268.096 294.271 267.856 293.737 267.602C293.404 267.442 293.044 267.256 292.657 267.042C292.271 266.816 291.897 266.542 291.537 266.222C291.191 265.889 290.904 265.489 290.677 265.022C290.451 264.556 290.337 263.996 290.337 263.342C290.337 262.489 290.531 261.762 290.917 261.162C291.317 260.549 291.877 260.082 292.597 259.762C293.331 259.442 294.191 259.282 295.177 259.282C295.924 259.282 296.631 259.369 297.297 259.542C297.977 259.716 298.684 259.962 299.417 260.282L298.437 262.642C297.784 262.376 297.197 262.169 296.677 262.022C296.157 261.876 295.624 261.802 295.077 261.802C294.704 261.802 294.384 261.862 294.117 261.982C293.851 262.102 293.644 262.269 293.497 262.482C293.364 262.696 293.297 262.949 293.297 263.242C293.297 263.576 293.397 263.862 293.597 264.102C293.797 264.329 294.097 264.549 294.497 264.762C294.897 264.976 295.397 265.229 295.997 265.522C296.731 265.869 297.351 266.229 297.857 266.602C298.377 266.976 298.777 267.416 299.057 267.922C299.337 268.429 299.477 269.056 299.477 269.802ZM306.333 262.642C307.346 262.642 308.213 262.836 308.933 263.222C309.666 263.609 310.233 264.169 310.633 264.902C311.033 265.636 311.233 266.536 311.233 267.602V269.042H304.193C304.22 269.882 304.466 270.542 304.933 271.022C305.413 271.502 306.073 271.742 306.913 271.742C307.62 271.742 308.26 271.676 308.833 271.542C309.406 271.396 310 271.176 310.613 270.882V273.182C310.08 273.449 309.513 273.642 308.913 273.762C308.326 273.896 307.613 273.962 306.773 273.962C305.68 273.962 304.713 273.762 303.873 273.362C303.033 272.949 302.373 272.329 301.893 271.502C301.413 270.676 301.173 269.636 301.173 268.382C301.173 267.102 301.386 266.042 301.813 265.202C302.253 264.349 302.86 263.709 303.633 263.282C304.406 262.856 305.306 262.642 306.333 262.642ZM306.353 264.762C305.78 264.762 305.3 264.949 304.913 265.322C304.54 265.696 304.32 266.276 304.253 267.062H308.433C308.433 266.622 308.353 266.229 308.193 265.882C308.046 265.536 307.82 265.262 307.513 265.062C307.206 264.862 306.82 264.762 306.353 264.762ZM318.09 273.962C317.01 273.962 316.09 273.769 315.33 273.382C314.57 272.982 313.99 272.369 313.59 271.542C313.19 270.716 312.99 269.656 312.99 268.362C312.99 267.029 313.216 265.942 313.67 265.102C314.123 264.262 314.75 263.642 315.55 263.242C316.363 262.842 317.296 262.642 318.35 262.642C319.096 262.642 319.743 262.716 320.29 262.862C320.85 263.009 321.336 263.182 321.75 263.382L320.87 265.682C320.403 265.496 319.963 265.342 319.55 265.222C319.15 265.102 318.75 265.042 318.35 265.042C317.83 265.042 317.396 265.169 317.05 265.422C316.703 265.662 316.443 266.029 316.27 266.522C316.11 267.002 316.03 267.609 316.03 268.342C316.03 269.062 316.116 269.662 316.29 270.142C316.476 270.609 316.743 270.962 317.09 271.202C317.436 271.429 317.856 271.542 318.35 271.542C318.976 271.542 319.53 271.462 320.01 271.302C320.49 271.129 320.956 270.896 321.41 270.602V273.142C320.956 273.436 320.476 273.642 319.97 273.762C319.476 273.896 318.85 273.962 318.09 273.962ZM333.943 262.842V273.762H331.663L331.263 272.362H331.103C330.876 272.736 330.583 273.042 330.223 273.282C329.876 273.509 329.49 273.676 329.063 273.782C328.636 273.902 328.196 273.962 327.743 273.962C326.97 273.962 326.29 273.822 325.703 273.542C325.116 273.262 324.663 272.829 324.343 272.242C324.023 271.656 323.863 270.896 323.863 269.962V262.842H326.843V269.222C326.843 269.996 326.983 270.582 327.263 270.982C327.543 271.382 327.99 271.582 328.603 271.582C329.216 271.582 329.69 271.442 330.023 271.162C330.37 270.882 330.61 270.476 330.743 269.942C330.89 269.409 330.963 268.756 330.963 267.982V262.842H333.943ZM343.167 262.642C343.314 262.642 343.487 262.649 343.687 262.662C343.887 262.676 344.047 262.696 344.167 262.722L343.947 265.522C343.854 265.496 343.714 265.476 343.527 265.462C343.354 265.436 343.201 265.422 343.067 265.422C342.681 265.422 342.307 265.476 341.947 265.582C341.587 265.676 341.261 265.829 340.967 266.042C340.687 266.256 340.461 266.542 340.287 266.902C340.127 267.249 340.047 267.682 340.047 268.202V273.762H337.067V262.842H339.327L339.767 264.682H339.907C340.121 264.309 340.387 263.969 340.707 263.662C341.027 263.356 341.394 263.109 341.807 262.922C342.234 262.736 342.687 262.642 343.167 262.642ZM349.13 262.842V273.762H346.15V262.842H349.13ZM347.65 258.562C348.09 258.562 348.47 258.669 348.79 258.882C349.11 259.082 349.27 259.462 349.27 260.022C349.27 260.569 349.11 260.949 348.79 261.162C348.47 261.376 348.09 261.482 347.65 261.482C347.196 261.482 346.81 261.376 346.49 261.162C346.183 260.949 346.03 260.569 346.03 260.022C346.03 259.462 346.183 259.082 346.49 258.882C346.81 258.669 347.196 258.562 347.65 258.562ZM356.843 271.582C357.177 271.582 357.497 271.549 357.803 271.482C358.11 271.416 358.417 271.336 358.723 271.242V273.462C358.403 273.596 358.003 273.709 357.523 273.802C357.057 273.909 356.543 273.962 355.983 273.962C355.33 273.962 354.743 273.856 354.223 273.642C353.717 273.429 353.31 273.062 353.003 272.542C352.71 272.009 352.563 271.276 352.563 270.342V265.082H351.143V263.822L352.783 262.822L353.643 260.522H355.543V262.842H358.603V265.082H355.543V270.342C355.543 270.756 355.663 271.069 355.903 271.282C356.143 271.482 356.457 271.582 356.843 271.582ZM359.355 262.842H362.615L364.675 268.982C364.742 269.182 364.795 269.382 364.835 269.582C364.888 269.782 364.928 269.989 364.955 270.202C364.995 270.416 365.022 270.642 365.035 270.882H365.095C365.135 270.536 365.188 270.209 365.255 269.902C365.335 269.582 365.422 269.276 365.515 268.982L367.535 262.842H370.735L366.115 275.162C365.835 275.909 365.468 276.536 365.015 277.042C364.575 277.549 364.062 277.929 363.475 278.182C362.888 278.436 362.248 278.562 361.555 278.562C361.222 278.562 360.928 278.542 360.675 278.502C360.435 278.476 360.222 278.442 360.035 278.402V276.042C360.182 276.069 360.355 276.096 360.555 276.122C360.768 276.149 360.988 276.162 361.215 276.162C361.628 276.162 361.982 276.076 362.275 275.902C362.582 275.729 362.835 275.489 363.035 275.182C363.235 274.889 363.395 274.569 363.515 274.222L363.695 273.682L359.355 262.842Z" fill="#51AABE"/>
<path d="M108.898 363.673C108.898 364.513 108.691 365.246 108.278 365.873C107.865 366.5 107.265 366.986 106.478 367.333C105.705 367.666 104.758 367.833 103.638 367.833C103.145 367.833 102.658 367.8 102.178 367.733C101.711 367.666 101.258 367.573 100.818 367.453C100.391 367.32 99.9846 367.16 99.5979 366.973V364.153C100.278 364.446 100.978 364.72 101.698 364.973C102.431 365.213 103.158 365.333 103.878 365.333C104.371 365.333 104.765 365.266 105.058 365.133C105.365 365 105.585 364.82 105.718 364.593C105.865 364.366 105.938 364.106 105.938 363.813C105.938 363.453 105.811 363.146 105.558 362.893C105.318 362.64 104.991 362.406 104.578 362.193C104.165 361.966 103.691 361.726 103.158 361.473C102.825 361.313 102.465 361.126 102.078 360.913C101.691 360.686 101.318 360.413 100.958 360.093C100.611 359.76 100.325 359.36 100.098 358.893C99.8713 358.426 99.7579 357.866 99.7579 357.213C99.7579 356.36 99.9513 355.633 100.338 355.033C100.738 354.42 101.298 353.953 102.018 353.633C102.751 353.313 103.611 353.153 104.598 353.153C105.345 353.153 106.051 353.24 106.718 353.413C107.398 353.586 108.105 353.833 108.838 354.153L107.858 356.513C107.205 356.246 106.618 356.04 106.098 355.893C105.578 355.746 105.045 355.673 104.498 355.673C104.125 355.673 103.805 355.733 103.538 355.853C103.271 355.973 103.065 356.14 102.918 356.353C102.785 356.566 102.718 356.82 102.718 357.113C102.718 357.446 102.818 357.733 103.018 357.973C103.218 358.2 103.518 358.42 103.918 358.633C104.318 358.846 104.818 359.1 105.418 359.393C106.151 359.74 106.771 360.1 107.278 360.473C107.798 360.846 108.198 361.286 108.478 361.793C108.758 362.3 108.898 362.926 108.898 363.673ZM115.694 367.833C114.614 367.833 113.694 367.64 112.934 367.253C112.174 366.853 111.594 366.24 111.194 365.413C110.794 364.586 110.594 363.526 110.594 362.233C110.594 360.9 110.82 359.813 111.274 358.973C111.727 358.133 112.354 357.513 113.154 357.113C113.967 356.713 114.9 356.513 115.954 356.513C116.7 356.513 117.347 356.586 117.894 356.733C118.454 356.88 118.94 357.053 119.354 357.253L118.474 359.553C118.007 359.366 117.567 359.213 117.154 359.093C116.754 358.973 116.354 358.913 115.954 358.913C115.434 358.913 115 359.04 114.654 359.293C114.307 359.533 114.047 359.9 113.874 360.393C113.714 360.873 113.634 361.48 113.634 362.213C113.634 362.933 113.72 363.533 113.894 364.013C114.08 364.48 114.347 364.833 114.694 365.073C115.04 365.3 115.46 365.413 115.954 365.413C116.58 365.413 117.134 365.333 117.614 365.173C118.094 365 118.56 364.766 119.014 364.473V367.013C118.56 367.306 118.08 367.513 117.574 367.633C117.08 367.766 116.454 367.833 115.694 367.833ZM124.507 355.533C124.507 356.066 124.487 356.58 124.447 357.073C124.42 357.566 124.394 357.913 124.367 358.113H124.527C124.767 357.74 125.047 357.44 125.367 357.213C125.687 356.973 126.04 356.8 126.427 356.693C126.827 356.573 127.247 356.513 127.687 356.513C128.474 356.513 129.16 356.653 129.747 356.933C130.334 357.213 130.787 357.646 131.107 358.233C131.44 358.82 131.607 359.58 131.607 360.513V367.633H128.627V361.253C128.627 360.466 128.48 359.88 128.187 359.493C127.907 359.093 127.467 358.893 126.867 358.893C126.267 358.893 125.794 359.033 125.447 359.313C125.114 359.593 124.874 360 124.727 360.533C124.58 361.066 124.507 361.72 124.507 362.493V367.633H121.527V352.433H124.507V355.533ZM144.592 362.153C144.592 363.06 144.465 363.866 144.212 364.573C143.972 365.28 143.618 365.88 143.152 366.373C142.698 366.853 142.145 367.22 141.492 367.473C140.838 367.713 140.098 367.833 139.272 367.833C138.512 367.833 137.805 367.713 137.152 367.473C136.512 367.22 135.958 366.853 135.492 366.373C135.025 365.88 134.658 365.28 134.392 364.573C134.138 363.866 134.012 363.06 134.012 362.153C134.012 360.94 134.225 359.92 134.652 359.093C135.078 358.253 135.692 357.613 136.492 357.173C137.292 356.733 138.238 356.513 139.332 356.513C140.358 356.513 141.265 356.733 142.052 357.173C142.838 357.613 143.458 358.253 143.912 359.093C144.365 359.92 144.592 360.94 144.592 362.153ZM137.052 362.153C137.052 362.873 137.125 363.48 137.272 363.973C137.432 364.453 137.678 364.82 138.012 365.073C138.345 365.313 138.778 365.433 139.312 365.433C139.845 365.433 140.272 365.313 140.592 365.073C140.925 364.82 141.165 364.453 141.312 363.973C141.472 363.48 141.552 362.873 141.552 362.153C141.552 361.433 141.472 360.833 141.312 360.353C141.165 359.873 140.925 359.513 140.592 359.273C140.258 359.033 139.825 358.913 139.292 358.913C138.505 358.913 137.932 359.186 137.572 359.733C137.225 360.266 137.052 361.073 137.052 362.153ZM150.034 367.633H147.054V352.433H150.034V367.633ZM157.628 356.493C159.095 356.493 160.215 356.813 160.988 357.453C161.775 358.08 162.168 359.046 162.168 360.353V367.633H160.088L159.508 366.153H159.428C159.121 366.54 158.801 366.86 158.468 367.113C158.148 367.366 157.775 367.546 157.348 367.653C156.935 367.773 156.421 367.833 155.808 367.833C155.168 367.833 154.588 367.713 154.068 367.473C153.561 367.22 153.161 366.84 152.868 366.333C152.575 365.813 152.428 365.16 152.428 364.373C152.428 363.213 152.835 362.36 153.648 361.813C154.461 361.253 155.681 360.946 157.308 360.893L159.208 360.833V360.353C159.208 359.78 159.055 359.36 158.748 359.093C158.455 358.826 158.041 358.693 157.508 358.693C156.975 358.693 156.455 358.773 155.948 358.933C155.441 359.08 154.935 359.266 154.428 359.493L153.448 357.473C154.035 357.166 154.681 356.926 155.388 356.753C156.108 356.58 156.855 356.493 157.628 356.493ZM158.048 362.613C157.088 362.64 156.421 362.813 156.048 363.133C155.675 363.453 155.488 363.873 155.488 364.393C155.488 364.846 155.621 365.173 155.888 365.373C156.155 365.56 156.501 365.653 156.928 365.653C157.568 365.653 158.108 365.466 158.548 365.093C158.988 364.706 159.208 364.166 159.208 363.473V362.573L158.048 362.613ZM171.318 356.513C171.465 356.513 171.638 356.52 171.838 356.533C172.038 356.546 172.198 356.566 172.318 356.593L172.098 359.393C172.005 359.366 171.865 359.346 171.678 359.333C171.505 359.306 171.352 359.293 171.218 359.293C170.832 359.293 170.458 359.346 170.098 359.453C169.738 359.546 169.412 359.7 169.118 359.913C168.838 360.126 168.612 360.413 168.438 360.773C168.278 361.12 168.198 361.553 168.198 362.073V367.633H165.218V356.713H167.478L167.918 358.553H168.058C168.272 358.18 168.538 357.84 168.858 357.533C169.178 357.226 169.545 356.98 169.958 356.793C170.385 356.606 170.838 356.513 171.318 356.513ZM184.176 353.353C185.442 353.353 186.502 353.473 187.356 353.713C188.222 353.94 188.869 354.32 189.296 354.853C189.736 355.373 189.956 356.08 189.956 356.973C189.956 357.506 189.869 357.993 189.696 358.433C189.522 358.873 189.269 359.233 188.936 359.513C188.616 359.793 188.222 359.973 187.756 360.053V360.153C188.236 360.246 188.669 360.413 189.056 360.653C189.442 360.893 189.749 361.24 189.976 361.693C190.202 362.146 190.316 362.746 190.316 363.493C190.316 364.36 190.102 365.106 189.676 365.733C189.262 366.346 188.662 366.82 187.876 367.153C187.089 367.473 186.156 367.633 185.076 367.633H179.736V353.353H184.176ZM184.516 359.013C185.396 359.013 186.002 358.873 186.336 358.593C186.682 358.313 186.856 357.906 186.856 357.373C186.856 356.826 186.656 356.433 186.256 356.193C185.856 355.953 185.222 355.833 184.356 355.833H182.756V359.013H184.516ZM182.756 361.413V365.133H184.736C185.642 365.133 186.276 364.96 186.636 364.613C186.996 364.253 187.176 363.78 187.176 363.193C187.176 362.833 187.096 362.52 186.936 362.253C186.789 361.986 186.529 361.78 186.156 361.633C185.782 361.486 185.276 361.413 184.636 361.413H182.756ZM199.033 356.513C199.18 356.513 199.353 356.52 199.553 356.533C199.753 356.546 199.913 356.566 200.033 356.593L199.813 359.393C199.72 359.366 199.58 359.346 199.393 359.333C199.22 359.306 199.067 359.293 198.933 359.293C198.547 359.293 198.173 359.346 197.813 359.453C197.453 359.546 197.127 359.7 196.833 359.913C196.553 360.126 196.327 360.413 196.153 360.773C195.993 361.12 195.913 361.553 195.913 362.073V367.633H192.933V356.713H195.193L195.633 358.553H195.773C195.987 358.18 196.253 357.84 196.573 357.533C196.893 357.226 197.26 356.98 197.673 356.793C198.1 356.606 198.553 356.513 199.033 356.513ZM206.105 356.493C207.571 356.493 208.691 356.813 209.465 357.453C210.251 358.08 210.645 359.046 210.645 360.353V367.633H208.565L207.985 366.153H207.905C207.598 366.54 207.278 366.86 206.945 367.113C206.625 367.366 206.251 367.546 205.825 367.653C205.411 367.773 204.898 367.833 204.285 367.833C203.645 367.833 203.065 367.713 202.545 367.473C202.038 367.22 201.638 366.84 201.345 366.333C201.051 365.813 200.905 365.16 200.905 364.373C200.905 363.213 201.311 362.36 202.125 361.813C202.938 361.253 204.158 360.946 205.785 360.893L207.685 360.833V360.353C207.685 359.78 207.531 359.36 207.225 359.093C206.931 358.826 206.518 358.693 205.985 358.693C205.451 358.693 204.931 358.773 204.425 358.933C203.918 359.08 203.411 359.266 202.905 359.493L201.925 357.473C202.511 357.166 203.158 356.926 203.865 356.753C204.585 356.58 205.331 356.493 206.105 356.493ZM206.525 362.613C205.565 362.64 204.898 362.813 204.525 363.133C204.151 363.453 203.965 363.873 203.965 364.393C203.965 364.846 204.098 365.173 204.365 365.373C204.631 365.56 204.978 365.653 205.405 365.653C206.045 365.653 206.585 365.466 207.025 365.093C207.465 364.706 207.685 364.166 207.685 363.473V362.573L206.525 362.613ZM216.675 356.713V367.633H213.695V356.713H216.675ZM215.195 352.433C215.635 352.433 216.015 352.54 216.335 352.753C216.655 352.953 216.815 353.333 216.815 353.893C216.815 354.44 216.655 354.82 216.335 355.033C216.015 355.246 215.635 355.353 215.195 355.353C214.742 355.353 214.355 355.246 214.035 355.033C213.728 354.82 213.575 354.44 213.575 353.893C213.575 353.333 213.728 352.953 214.035 352.753C214.355 352.54 214.742 352.433 215.195 352.433ZM225.989 356.513C227.162 356.513 228.102 356.833 228.809 357.473C229.515 358.1 229.869 359.113 229.869 360.513V367.633H226.889V361.253C226.889 360.466 226.749 359.88 226.469 359.493C226.189 359.093 225.742 358.893 225.129 358.893C224.222 358.893 223.602 359.206 223.269 359.833C222.935 360.446 222.769 361.333 222.769 362.493V367.633H219.789V356.713H222.069L222.469 358.113H222.629C222.869 357.74 223.162 357.44 223.509 357.213C223.855 356.973 224.242 356.8 224.669 356.693C225.095 356.573 225.535 356.513 225.989 356.513Z" fill="black"/>
<path d="M431.623 360.353C431.623 361.953 431.316 363.293 430.703 364.373C430.089 365.453 429.196 366.266 428.023 366.813C426.863 367.36 425.463 367.633 423.823 367.633H419.783V353.353H424.263C425.756 353.353 427.049 353.62 428.143 354.153C429.249 354.686 430.103 355.473 430.703 356.513C431.316 357.54 431.623 358.82 431.623 360.353ZM428.483 360.433C428.483 359.38 428.329 358.513 428.023 357.833C427.716 357.153 427.256 356.653 426.643 356.333C426.043 356 425.303 355.833 424.423 355.833H422.803V365.133H424.103C425.583 365.133 426.683 364.74 427.403 363.953C428.123 363.166 428.483 361.993 428.483 360.433ZM438.847 356.513C439.861 356.513 440.727 356.706 441.447 357.093C442.181 357.48 442.747 358.04 443.147 358.773C443.547 359.506 443.747 360.406 443.747 361.473V362.913H436.707C436.734 363.753 436.981 364.413 437.447 364.893C437.927 365.373 438.587 365.613 439.427 365.613C440.134 365.613 440.774 365.546 441.347 365.413C441.921 365.266 442.514 365.046 443.127 364.753V367.053C442.594 367.32 442.027 367.513 441.427 367.633C440.841 367.766 440.127 367.833 439.287 367.833C438.194 367.833 437.227 367.633 436.387 367.233C435.547 366.82 434.887 366.2 434.407 365.373C433.927 364.546 433.687 363.506 433.687 362.253C433.687 360.973 433.901 359.913 434.327 359.073C434.767 358.22 435.374 357.58 436.147 357.153C436.921 356.726 437.821 356.513 438.847 356.513ZM438.867 358.633C438.294 358.633 437.814 358.82 437.427 359.193C437.054 359.566 436.834 360.146 436.767 360.933H440.947C440.947 360.493 440.867 360.1 440.707 359.753C440.561 359.406 440.334 359.133 440.027 358.933C439.721 358.733 439.334 358.633 438.867 358.633ZM450.764 365.453C451.097 365.453 451.417 365.42 451.724 365.353C452.03 365.286 452.337 365.206 452.644 365.113V367.333C452.324 367.466 451.924 367.58 451.444 367.673C450.977 367.78 450.464 367.833 449.904 367.833C449.25 367.833 448.664 367.726 448.144 367.513C447.637 367.3 447.23 366.933 446.924 366.413C446.63 365.88 446.484 365.146 446.484 364.213V358.953H445.064V357.693L446.704 356.693L447.564 354.393H449.464V356.713H452.524V358.953H449.464V364.213C449.464 364.626 449.584 364.94 449.824 365.153C450.064 365.353 450.377 365.453 450.764 365.453ZM459.336 356.513C460.349 356.513 461.216 356.706 461.936 357.093C462.669 357.48 463.236 358.04 463.636 358.773C464.036 359.506 464.236 360.406 464.236 361.473V362.913H457.196C457.222 363.753 457.469 364.413 457.936 364.893C458.416 365.373 459.076 365.613 459.916 365.613C460.622 365.613 461.262 365.546 461.836 365.413C462.409 365.266 463.002 365.046 463.616 364.753V367.053C463.082 367.32 462.516 367.513 461.916 367.633C461.329 367.766 460.616 367.833 459.776 367.833C458.682 367.833 457.716 367.633 456.876 367.233C456.036 366.82 455.376 366.2 454.896 365.373C454.416 364.546 454.176 363.506 454.176 362.253C454.176 360.973 454.389 359.913 454.816 359.073C455.256 358.22 455.862 357.58 456.636 357.153C457.409 356.726 458.309 356.513 459.336 356.513ZM459.356 358.633C458.782 358.633 458.302 358.82 457.916 359.193C457.542 359.566 457.322 360.146 457.256 360.933H461.436C461.436 360.493 461.356 360.1 461.196 359.753C461.049 359.406 460.822 359.133 460.516 358.933C460.209 358.733 459.822 358.633 459.356 358.633ZM471.092 367.833C470.012 367.833 469.092 367.64 468.332 367.253C467.572 366.853 466.992 366.24 466.592 365.413C466.192 364.586 465.992 363.526 465.992 362.233C465.992 360.9 466.219 359.813 466.672 358.973C467.125 358.133 467.752 357.513 468.552 357.113C469.365 356.713 470.299 356.513 471.352 356.513C472.099 356.513 472.745 356.586 473.292 356.733C473.852 356.88 474.339 357.053 474.752 357.253L473.872 359.553C473.405 359.366 472.965 359.213 472.552 359.093C472.152 358.973 471.752 358.913 471.352 358.913C470.832 358.913 470.399 359.04 470.052 359.293C469.705 359.533 469.445 359.9 469.272 360.393C469.112 360.873 469.032 361.48 469.032 362.213C469.032 362.933 469.119 363.533 469.292 364.013C469.479 364.48 469.745 364.833 470.092 365.073C470.439 365.3 470.859 365.413 471.352 365.413C471.979 365.413 472.532 365.333 473.012 365.173C473.492 365 473.959 364.766 474.412 364.473V367.013C473.959 367.306 473.479 367.513 472.972 367.633C472.479 367.766 471.852 367.833 471.092 367.833ZM481.525 365.453C481.859 365.453 482.179 365.42 482.485 365.353C482.792 365.286 483.099 365.206 483.405 365.113V367.333C483.085 367.466 482.685 367.58 482.205 367.673C481.739 367.78 481.225 367.833 480.665 367.833C480.012 367.833 479.425 367.726 478.905 367.513C478.399 367.3 477.992 366.933 477.685 366.413C477.392 365.88 477.245 365.146 477.245 364.213V358.953H475.825V357.693L477.465 356.693L478.325 354.393H480.225V356.713H483.285V358.953H480.225V364.213C480.225 364.626 480.345 364.94 480.585 365.153C480.825 365.353 481.139 365.453 481.525 365.453ZM488.577 356.713V367.633H485.597V356.713H488.577ZM487.097 352.433C487.537 352.433 487.917 352.54 488.237 352.753C488.557 352.953 488.717 353.333 488.717 353.893C488.717 354.44 488.557 354.82 488.237 355.033C487.917 355.246 487.537 355.353 487.097 355.353C486.644 355.353 486.257 355.246 485.937 355.033C485.631 354.82 485.477 354.44 485.477 353.893C485.477 353.333 485.631 352.953 485.937 352.753C486.257 352.54 486.644 352.433 487.097 352.433ZM494.291 367.633L490.131 356.713H493.251L495.351 362.933C495.431 363.173 495.498 363.426 495.551 363.693C495.618 363.96 495.664 364.22 495.691 364.473C495.731 364.726 495.758 364.96 495.771 365.173H495.851C495.864 364.946 495.891 364.706 495.931 364.453C495.971 364.2 496.018 363.946 496.071 363.693C496.138 363.426 496.211 363.173 496.291 362.933L498.391 356.713H501.511L497.351 367.633H494.291ZM507.578 356.513C508.591 356.513 509.458 356.706 510.178 357.093C510.911 357.48 511.478 358.04 511.878 358.773C512.278 359.506 512.478 360.406 512.478 361.473V362.913H505.438C505.464 363.753 505.711 364.413 506.178 364.893C506.658 365.373 507.318 365.613 508.158 365.613C508.864 365.613 509.504 365.546 510.078 365.413C510.651 365.266 511.244 365.046 511.858 364.753V367.053C511.324 367.32 510.758 367.513 510.158 367.633C509.571 367.766 508.858 367.833 508.018 367.833C506.924 367.833 505.958 367.633 505.118 367.233C504.278 366.82 503.618 366.2 503.138 365.373C502.658 364.546 502.418 363.506 502.418 362.253C502.418 360.973 502.631 359.913 503.058 359.073C503.498 358.22 504.104 357.58 504.878 357.153C505.651 356.726 506.551 356.513 507.578 356.513ZM507.598 358.633C507.024 358.633 506.544 358.82 506.158 359.193C505.784 359.566 505.564 360.146 505.498 360.933H509.678C509.678 360.493 509.598 360.1 509.438 359.753C509.291 359.406 509.064 359.133 508.758 358.933C508.451 358.733 508.064 358.633 507.598 358.633ZM524.769 353.353C526.036 353.353 527.096 353.473 527.949 353.713C528.816 353.94 529.463 354.32 529.889 354.853C530.329 355.373 530.549 356.08 530.549 356.973C530.549 357.506 530.463 357.993 530.289 358.433C530.116 358.873 529.863 359.233 529.529 359.513C529.209 359.793 528.816 359.973 528.349 360.053V360.153C528.829 360.246 529.263 360.413 529.649 360.653C530.036 360.893 530.343 361.24 530.569 361.693C530.796 362.146 530.909 362.746 530.909 363.493C530.909 364.36 530.696 365.106 530.269 365.733C529.856 366.346 529.256 366.82 528.469 367.153C527.683 367.473 526.749 367.633 525.669 367.633H520.329V353.353H524.769ZM525.109 359.013C525.989 359.013 526.596 358.873 526.929 358.593C527.276 358.313 527.449 357.906 527.449 357.373C527.449 356.826 527.249 356.433 526.849 356.193C526.449 355.953 525.816 355.833 524.949 355.833H523.349V359.013H525.109ZM523.349 361.413V365.133H525.329C526.236 365.133 526.869 364.96 527.229 364.613C527.589 364.253 527.769 363.78 527.769 363.193C527.769 362.833 527.689 362.52 527.529 362.253C527.383 361.986 527.123 361.78 526.749 361.633C526.376 361.486 525.869 361.413 525.229 361.413H523.349ZM539.627 356.513C539.774 356.513 539.947 356.52 540.147 356.533C540.347 356.546 540.507 356.566 540.627 356.593L540.407 359.393C540.314 359.366 540.174 359.346 539.987 359.333C539.814 359.306 539.66 359.293 539.527 359.293C539.14 359.293 538.767 359.346 538.407 359.453C538.047 359.546 537.72 359.7 537.427 359.913C537.147 360.126 536.92 360.413 536.747 360.773C536.587 361.12 536.507 361.553 536.507 362.073V367.633H533.527V356.713H535.787L536.227 358.553H536.367C536.58 358.18 536.847 357.84 537.167 357.533C537.487 357.226 537.854 356.98 538.267 356.793C538.694 356.606 539.147 356.513 539.627 356.513ZM546.698 356.493C548.165 356.493 549.285 356.813 550.058 357.453C550.845 358.08 551.238 359.046 551.238 360.353V367.633H549.158L548.578 366.153H548.498C548.192 366.54 547.872 366.86 547.538 367.113C547.218 367.366 546.845 367.546 546.418 367.653C546.005 367.773 545.492 367.833 544.878 367.833C544.238 367.833 543.658 367.713 543.138 367.473C542.632 367.22 542.232 366.84 541.938 366.333C541.645 365.813 541.498 365.16 541.498 364.373C541.498 363.213 541.905 362.36 542.718 361.813C543.532 361.253 544.752 360.946 546.378 360.893L548.278 360.833V360.353C548.278 359.78 548.125 359.36 547.818 359.093C547.525 358.826 547.112 358.693 546.578 358.693C546.045 358.693 545.525 358.773 545.018 358.933C544.512 359.08 544.005 359.266 543.498 359.493L542.518 357.473C543.105 357.166 543.752 356.926 544.458 356.753C545.178 356.58 545.925 356.493 546.698 356.493ZM547.118 362.613C546.158 362.64 545.492 362.813 545.118 363.133C544.745 363.453 544.558 363.873 544.558 364.393C544.558 364.846 544.692 365.173 544.958 365.373C545.225 365.56 545.572 365.653 545.998 365.653C546.638 365.653 547.178 365.466 547.618 365.093C548.058 364.706 548.278 364.166 548.278 363.473V362.573L547.118 362.613ZM557.269 356.713V367.633H554.289V356.713H557.269ZM555.789 352.433C556.229 352.433 556.609 352.54 556.929 352.753C557.249 352.953 557.409 353.333 557.409 353.893C557.409 354.44 557.249 354.82 556.929 355.033C556.609 355.246 556.229 355.353 555.789 355.353C555.335 355.353 554.949 355.246 554.629 355.033C554.322 354.82 554.169 354.44 554.169 353.893C554.169 353.333 554.322 352.953 554.629 352.753C554.949 352.54 555.335 352.433 555.789 352.433ZM566.582 356.513C567.756 356.513 568.696 356.833 569.402 357.473C570.109 358.1 570.462 359.113 570.462 360.513V367.633H567.482V361.253C567.482 360.466 567.342 359.88 567.062 359.493C566.782 359.093 566.336 358.893 565.722 358.893C564.816 358.893 564.196 359.206 563.862 359.833C563.529 360.446 563.362 361.333 563.362 362.493V367.633H560.382V356.713H562.662L563.062 358.113H563.222C563.462 357.74 563.756 357.44 564.102 357.213C564.449 356.973 564.836 356.8 565.262 356.693C565.689 356.573 566.129 356.513 566.582 356.513Z" fill="black"/>
<path d="M270.793 203.379H264.293V201.659L266.033 200.859V191.619L264.293 190.819V189.099H270.793V190.819L269.053 191.619V200.859L270.793 201.659V203.379ZM279.186 192.259C280.36 192.259 281.3 192.579 282.006 193.219C282.713 193.845 283.066 194.859 283.066 196.259V203.379H280.086V196.999C280.086 196.212 279.946 195.625 279.666 195.239C279.386 194.839 278.94 194.639 278.326 194.639C277.42 194.639 276.8 194.952 276.466 195.579C276.133 196.192 275.966 197.079 275.966 198.239V203.379H272.986V192.459H275.266L275.666 193.859H275.826C276.066 193.485 276.36 193.185 276.706 192.959C277.053 192.719 277.44 192.545 277.866 192.439C278.293 192.319 278.733 192.259 279.186 192.259ZM292.171 194.699H289.591V203.379H286.611V194.699H284.971V193.259L286.611 192.459V191.659C286.611 190.725 286.764 190.005 287.071 189.499C287.391 188.979 287.837 188.612 288.411 188.399C288.997 188.185 289.684 188.079 290.471 188.079C291.057 188.079 291.584 188.125 292.051 188.219C292.531 188.312 292.917 188.419 293.211 188.539L292.451 190.719C292.224 190.652 291.977 190.592 291.711 190.539C291.444 190.472 291.137 190.439 290.791 190.439C290.377 190.439 290.071 190.565 289.871 190.819C289.684 191.072 289.591 191.392 289.591 191.779V192.459H292.171V194.699ZM296.851 192.459V203.379H293.871V192.459H296.851ZM295.371 188.179C295.811 188.179 296.191 188.285 296.511 188.499C296.831 188.699 296.991 189.079 296.991 189.639C296.991 190.185 296.831 190.565 296.511 190.779C296.191 190.992 295.811 191.099 295.371 191.099C294.917 191.099 294.531 190.992 294.211 190.779C293.904 190.565 293.751 190.185 293.751 189.639C293.751 189.079 293.904 188.699 294.211 188.499C294.531 188.285 294.917 188.179 295.371 188.179ZM306.178 192.259C307.352 192.259 308.292 192.579 308.998 193.219C309.705 193.845 310.058 194.859 310.058 196.259V203.379H307.078V196.999C307.078 196.212 306.938 195.625 306.658 195.239C306.378 194.839 305.932 194.639 305.318 194.639C304.412 194.639 303.792 194.952 303.458 195.579C303.125 196.192 302.958 197.079 302.958 198.239V203.379H299.978V192.459H302.258L302.658 193.859H302.818C303.058 193.485 303.352 193.185 303.698 192.959C304.045 192.719 304.432 192.545 304.858 192.439C305.285 192.319 305.725 192.259 306.178 192.259ZM316.103 192.459V203.379H313.123V192.459H316.103ZM314.623 188.179C315.063 188.179 315.443 188.285 315.763 188.499C316.083 188.699 316.243 189.079 316.243 189.639C316.243 190.185 316.083 190.565 315.763 190.779C315.443 190.992 315.063 191.099 314.623 191.099C314.17 191.099 313.783 190.992 313.463 190.779C313.156 190.565 313.003 190.185 313.003 189.639C313.003 189.079 313.156 188.699 313.463 188.499C313.783 188.285 314.17 188.179 314.623 188.179ZM323.817 201.199C324.15 201.199 324.47 201.165 324.777 201.099C325.083 201.032 325.39 200.952 325.697 200.859V203.079C325.377 203.212 324.977 203.325 324.497 203.419C324.03 203.525 323.517 203.579 322.957 203.579C322.303 203.579 321.717 203.472 321.197 203.259C320.69 203.045 320.283 202.679 319.977 202.159C319.683 201.625 319.537 200.892 319.537 199.959V194.699H318.117V193.439L319.757 192.439L320.617 190.139H322.517V192.459H325.577V194.699H322.517V199.959C322.517 200.372 322.637 200.685 322.877 200.899C323.117 201.099 323.43 201.199 323.817 201.199ZM326.329 192.459H329.589L331.649 198.599C331.715 198.799 331.769 198.999 331.809 199.199C331.862 199.399 331.902 199.605 331.929 199.819C331.969 200.032 331.995 200.259 332.009 200.499H332.069C332.109 200.152 332.162 199.825 332.229 199.519C332.309 199.199 332.395 198.892 332.489 198.599L334.509 192.459H337.709L333.089 204.779C332.809 205.525 332.442 206.152 331.989 206.659C331.549 207.165 331.035 207.545 330.449 207.799C329.862 208.052 329.222 208.179 328.529 208.179C328.195 208.179 327.902 208.159 327.649 208.119C327.409 208.092 327.195 208.059 327.009 208.019V205.659C327.155 205.685 327.329 205.712 327.529 205.739C327.742 205.765 327.962 205.779 328.189 205.779C328.602 205.779 328.955 205.692 329.249 205.519C329.555 205.345 329.809 205.105 330.009 204.799C330.209 204.505 330.369 204.185 330.489 203.839L330.669 203.299L326.329 192.459ZM349.151 189.099C350.417 189.099 351.477 189.219 352.331 189.459C353.197 189.685 353.844 190.065 354.271 190.599C354.711 191.119 354.931 191.825 354.931 192.719C354.931 193.252 354.844 193.739 354.671 194.179C354.497 194.619 354.244 194.979 353.911 195.259C353.591 195.539 353.197 195.719 352.731 195.799V195.899C353.211 195.992 353.644 196.159 354.031 196.399C354.417 196.639 354.724 196.985 354.951 197.439C355.177 197.892 355.291 198.492 355.291 199.239C355.291 200.105 355.077 200.852 354.651 201.479C354.237 202.092 353.637 202.565 352.851 202.899C352.064 203.219 351.131 203.379 350.051 203.379H344.711V189.099H349.151ZM349.491 194.759C350.371 194.759 350.977 194.619 351.311 194.339C351.657 194.059 351.831 193.652 351.831 193.119C351.831 192.572 351.631 192.179 351.231 191.939C350.831 191.699 350.197 191.579 349.331 191.579H347.731V194.759H349.491ZM347.731 197.159V200.879H349.711C350.617 200.879 351.251 200.705 351.611 200.359C351.971 199.999 352.151 199.525 352.151 198.939C352.151 198.579 352.071 198.265 351.911 197.999C351.764 197.732 351.504 197.525 351.131 197.379C350.757 197.232 350.251 197.159 349.611 197.159H347.731ZM364.008 192.259C364.155 192.259 364.328 192.265 364.528 192.279C364.728 192.292 364.888 192.312 365.008 192.339L364.788 195.139C364.695 195.112 364.555 195.092 364.368 195.079C364.195 195.052 364.041 195.039 363.908 195.039C363.521 195.039 363.148 195.092 362.788 195.199C362.428 195.292 362.101 195.445 361.808 195.659C361.528 195.872 361.301 196.159 361.128 196.519C360.968 196.865 360.888 197.299 360.888 197.819V203.379H357.908V192.459H360.168L360.608 194.299H360.748C360.961 193.925 361.228 193.585 361.548 193.279C361.868 192.972 362.235 192.725 362.648 192.539C363.075 192.352 363.528 192.259 364.008 192.259ZM371.08 192.239C372.546 192.239 373.666 192.559 374.44 193.199C375.226 193.825 375.62 194.792 375.62 196.099V203.379H373.54L372.96 201.899H372.88C372.573 202.285 372.253 202.605 371.92 202.859C371.6 203.112 371.226 203.292 370.8 203.399C370.386 203.519 369.873 203.579 369.26 203.579C368.62 203.579 368.04 203.459 367.52 203.219C367.013 202.965 366.613 202.585 366.32 202.079C366.026 201.559 365.88 200.905 365.88 200.119C365.88 198.959 366.286 198.105 367.1 197.559C367.913 196.999 369.133 196.692 370.76 196.639L372.66 196.579V196.099C372.66 195.525 372.506 195.105 372.2 194.839C371.906 194.572 371.493 194.439 370.96 194.439C370.426 194.439 369.906 194.519 369.4 194.679C368.893 194.825 368.386 195.012 367.88 195.239L366.9 193.219C367.486 192.912 368.133 192.672 368.84 192.499C369.56 192.325 370.306 192.239 371.08 192.239ZM371.5 198.359C370.54 198.385 369.873 198.559 369.5 198.879C369.126 199.199 368.94 199.619 368.94 200.139C368.94 200.592 369.073 200.919 369.34 201.119C369.606 201.305 369.953 201.399 370.38 201.399C371.02 201.399 371.56 201.212 372 200.839C372.44 200.452 372.66 199.912 372.66 199.219V198.319L371.5 198.359ZM381.65 192.459V203.379H378.67V192.459H381.65ZM380.17 188.179C380.61 188.179 380.99 188.285 381.31 188.499C381.63 188.699 381.79 189.079 381.79 189.639C381.79 190.185 381.63 190.565 381.31 190.779C380.99 190.992 380.61 191.099 380.17 191.099C379.717 191.099 379.33 190.992 379.01 190.779C378.703 190.565 378.55 190.185 378.55 189.639C378.55 189.079 378.703 188.699 379.01 188.499C379.33 188.285 379.717 188.179 380.17 188.179ZM390.964 192.259C392.137 192.259 393.077 192.579 393.784 193.219C394.49 193.845 394.844 194.859 394.844 196.259V203.379H391.864V196.999C391.864 196.212 391.724 195.625 391.444 195.239C391.164 194.839 390.717 194.639 390.104 194.639C389.197 194.639 388.577 194.952 388.244 195.579C387.91 196.192 387.744 197.079 387.744 198.239V203.379H384.764V192.459H387.044L387.444 193.859H387.604C387.844 193.485 388.137 193.185 388.484 192.959C388.83 192.719 389.217 192.545 389.644 192.439C390.07 192.319 390.51 192.259 390.964 192.259Z" fill="black"/>
<path d="M410.886 32.9199H402.666V18.6399H410.886V21.1199H405.686V24.2599H410.526V26.7399H405.686V30.4199H410.886V32.9199ZM415.857 27.3399L412.337 21.9999H415.717L417.837 25.4799L419.977 21.9999H423.357L419.797 27.3399L423.517 32.9199H420.137L417.837 29.1799L415.537 32.9199H412.157L415.857 27.3399ZM431.26 21.7999C432.486 21.7999 433.48 22.2799 434.24 23.2399C435 24.1866 435.38 25.5866 435.38 27.4399C435.38 28.6799 435.2 29.7266 434.84 30.5799C434.48 31.4199 433.986 32.0533 433.36 32.4799C432.733 32.9066 432.006 33.1199 431.18 33.1199C430.66 33.1199 430.206 33.0533 429.82 32.9199C429.446 32.7866 429.126 32.6133 428.86 32.3999C428.593 32.1866 428.36 31.9599 428.16 31.7199H428C428.053 31.9733 428.093 32.2399 428.12 32.5199C428.146 32.7866 428.16 33.0533 428.16 33.3199V37.7199H425.18V21.9999H427.6L428.02 23.4199H428.16C428.36 23.1266 428.6 22.8599 428.88 22.6199C429.16 22.3666 429.493 22.1666 429.88 22.0199C430.28 21.8733 430.74 21.7999 431.26 21.7999ZM430.3 24.1799C429.78 24.1799 429.366 24.2866 429.06 24.4999C428.753 24.7133 428.526 25.0399 428.38 25.4799C428.246 25.9066 428.173 26.4466 428.16 27.0999V27.4199C428.16 28.1266 428.226 28.7266 428.36 29.2199C428.493 29.6999 428.72 30.0666 429.04 30.3199C429.36 30.5733 429.793 30.6999 430.34 30.6999C430.793 30.6999 431.166 30.5733 431.46 30.3199C431.753 30.0666 431.973 29.6933 432.12 29.1999C432.266 28.7066 432.34 28.1066 432.34 27.3999C432.34 26.3333 432.173 25.5333 431.84 24.9999C431.52 24.4533 431.006 24.1799 430.3 24.1799ZM440.816 32.9199H437.836V17.7199H440.816V32.9199ZM453.85 27.4399C453.85 28.3466 453.723 29.1533 453.47 29.8599C453.23 30.5666 452.876 31.1666 452.41 31.6599C451.956 32.1399 451.403 32.5066 450.75 32.7599C450.096 32.9999 449.356 33.1199 448.53 33.1199C447.77 33.1199 447.063 32.9999 446.41 32.7599C445.77 32.5066 445.216 32.1399 444.75 31.6599C444.283 31.1666 443.916 30.5666 443.65 29.8599C443.396 29.1533 443.27 28.3466 443.27 27.4399C443.27 26.2266 443.483 25.2066 443.91 24.3799C444.336 23.5399 444.95 22.8999 445.75 22.4599C446.55 22.0199 447.496 21.7999 448.59 21.7999C449.616 21.7999 450.523 22.0199 451.31 22.4599C452.096 22.8999 452.716 23.5399 453.17 24.3799C453.623 25.2066 453.85 26.2266 453.85 27.4399ZM446.31 27.4399C446.31 28.1599 446.383 28.7666 446.53 29.2599C446.69 29.7399 446.936 30.1066 447.27 30.3599C447.603 30.5999 448.036 30.7199 448.57 30.7199C449.103 30.7199 449.53 30.5999 449.85 30.3599C450.183 30.1066 450.423 29.7399 450.57 29.2599C450.73 28.7666 450.81 28.1599 450.81 27.4399C450.81 26.7199 450.73 26.1199 450.57 25.6399C450.423 25.1599 450.183 24.7999 449.85 24.5599C449.516 24.3199 449.083 24.1999 448.55 24.1999C447.763 24.1999 447.19 24.4733 446.83 25.0199C446.483 25.5533 446.31 26.3599 446.31 27.4399ZM462.413 21.7999C462.559 21.7999 462.733 21.8066 462.933 21.8199C463.133 21.8333 463.293 21.8533 463.413 21.8799L463.193 24.6799C463.099 24.6533 462.959 24.6333 462.773 24.6199C462.599 24.5933 462.446 24.5799 462.313 24.5799C461.926 24.5799 461.553 24.6333 461.193 24.7399C460.833 24.8333 460.506 24.9866 460.213 25.1999C459.933 25.4133 459.706 25.6999 459.533 26.0599C459.373 26.4066 459.293 26.8399 459.293 27.3599V32.9199H456.313V21.9999H458.573L459.013 23.8399H459.153C459.366 23.4666 459.633 23.1266 459.953 22.8199C460.273 22.5133 460.639 22.2666 461.053 22.0799C461.479 21.8933 461.933 21.7999 462.413 21.7999ZM469.504 21.7999C470.517 21.7999 471.384 21.9933 472.104 22.3799C472.837 22.7666 473.404 23.3266 473.804 24.0599C474.204 24.7933 474.404 25.6933 474.404 26.7599V28.1999H467.364C467.391 29.0399 467.637 29.6999 468.104 30.1799C468.584 30.6599 469.244 30.8999 470.084 30.8999C470.791 30.8999 471.431 30.8333 472.004 30.6999C472.577 30.5533 473.171 30.3333 473.784 30.0399V32.3399C473.251 32.6066 472.684 32.7999 472.084 32.9199C471.497 33.0533 470.784 33.1199 469.944 33.1199C468.851 33.1199 467.884 32.9199 467.044 32.5199C466.204 32.1066 465.544 31.4866 465.064 30.6599C464.584 29.8333 464.344 28.7933 464.344 27.5399C464.344 26.2599 464.557 25.1999 464.984 24.3599C465.424 23.5066 466.031 22.8666 466.804 22.4399C467.577 22.0133 468.477 21.7999 469.504 21.7999ZM469.524 23.9199C468.951 23.9199 468.471 24.1066 468.084 24.4799C467.711 24.8533 467.491 25.4333 467.424 26.2199H471.604C471.604 25.7799 471.524 25.3866 471.364 25.0399C471.217 24.6933 470.991 24.4199 470.684 24.2199C470.377 24.0199 469.991 23.9199 469.524 23.9199ZM482.92 21.7999C483.067 21.7999 483.24 21.8066 483.44 21.8199C483.64 21.8333 483.8 21.8533 483.92 21.8799L483.7 24.6799C483.607 24.6533 483.467 24.6333 483.28 24.6199C483.107 24.5933 482.954 24.5799 482.82 24.5799C482.434 24.5799 482.06 24.6333 481.7 24.7399C481.34 24.8333 481.014 24.9866 480.72 25.1999C480.44 25.4133 480.214 25.6999 480.04 26.0599C479.88 26.4066 479.8 26.8399 479.8 27.3599V32.9199H476.82V21.9999H479.08L479.52 23.8399H479.66C479.874 23.4666 480.14 23.1266 480.46 22.8199C480.78 22.5133 481.147 22.2666 481.56 22.0799C481.987 21.8933 482.44 21.7999 482.92 21.7999ZM495.778 18.6399C497.044 18.6399 498.104 18.7599 498.958 18.9999C499.824 19.2266 500.471 19.6066 500.898 20.1399C501.338 20.6599 501.558 21.3666 501.558 22.2599C501.558 22.7933 501.471 23.2799 501.298 23.7199C501.124 24.1599 500.871 24.5199 500.538 24.7999C500.218 25.0799 499.824 25.2599 499.358 25.3399V25.4399C499.838 25.5333 500.271 25.6999 500.658 25.9399C501.044 26.1799 501.351 26.5266 501.578 26.9799C501.804 27.4333 501.918 28.0333 501.918 28.7799C501.918 29.6466 501.704 30.3933 501.278 31.0199C500.864 31.6333 500.264 32.1066 499.478 32.4399C498.691 32.7599 497.758 32.9199 496.678 32.9199H491.338V18.6399H495.778ZM496.118 24.2999C496.998 24.2999 497.604 24.1599 497.938 23.8799C498.284 23.5999 498.458 23.1933 498.458 22.6599C498.458 22.1133 498.258 21.7199 497.858 21.4799C497.458 21.2399 496.824 21.1199 495.958 21.1199H494.358V24.2999H496.118ZM494.358 26.6999V30.4199H496.338C497.244 30.4199 497.878 30.2466 498.238 29.8999C498.598 29.5399 498.778 29.0666 498.778 28.4799C498.778 28.1199 498.698 27.8066 498.538 27.5399C498.391 27.2733 498.131 27.0666 497.758 26.9199C497.384 26.7733 496.878 26.6999 496.238 26.6999H494.358ZM510.635 21.7999C510.782 21.7999 510.955 21.8066 511.155 21.8199C511.355 21.8333 511.515 21.8533 511.635 21.8799L511.415 24.6799C511.322 24.6533 511.182 24.6333 510.995 24.6199C510.822 24.5933 510.669 24.5799 510.535 24.5799C510.149 24.5799 509.775 24.6333 509.415 24.7399C509.055 24.8333 508.729 24.9866 508.435 25.1999C508.155 25.4133 507.929 25.6999 507.755 26.0599C507.595 26.4066 507.515 26.8399 507.515 27.3599V32.9199H504.535V21.9999H506.795L507.235 23.8399H507.375C507.589 23.4666 507.855 23.1266 508.175 22.8199C508.495 22.5133 508.862 22.2666 509.275 22.0799C509.702 21.8933 510.155 21.7999 510.635 21.7999ZM517.707 21.7799C519.173 21.7799 520.293 22.0999 521.067 22.7399C521.853 23.3666 522.247 24.3333 522.247 25.6399V32.9199H520.167L519.587 31.4399H519.507C519.2 31.8266 518.88 32.1466 518.547 32.3999C518.227 32.6533 517.853 32.8333 517.427 32.9399C517.013 33.0599 516.5 33.1199 515.887 33.1199C515.247 33.1199 514.667 32.9999 514.147 32.7599C513.64 32.5066 513.24 32.1266 512.947 31.6199C512.653 31.0999 512.507 30.4466 512.507 29.6599C512.507 28.4999 512.913 27.6466 513.727 27.0999C514.54 26.5399 515.76 26.2333 517.387 26.1799L519.287 26.1199V25.6399C519.287 25.0666 519.133 24.6466 518.827 24.3799C518.533 24.1133 518.12 23.9799 517.587 23.9799C517.053 23.9799 516.533 24.0599 516.027 24.2199C515.52 24.3666 515.013 24.5533 514.507 24.7799L513.527 22.7599C514.113 22.4533 514.76 22.2133 515.467 22.0399C516.187 21.8666 516.933 21.7799 517.707 21.7799ZM518.127 27.8999C517.167 27.9266 516.5 28.0999 516.127 28.4199C515.753 28.7399 515.567 29.1599 515.567 29.6799C515.567 30.1333 515.7 30.4599 515.967 30.6599C516.233 30.8466 516.58 30.9399 517.007 30.9399C517.647 30.9399 518.187 30.7533 518.627 30.3799C519.067 29.9933 519.287 29.4533 519.287 28.7599V27.8599L518.127 27.8999ZM528.277 21.9999V32.9199H525.297V21.9999H528.277ZM526.797 17.7199C527.237 17.7199 527.617 17.8266 527.937 18.0399C528.257 18.2399 528.417 18.6199 528.417 19.1799C528.417 19.7266 528.257 20.1066 527.937 20.3199C527.617 20.5333 527.237 20.6399 526.797 20.6399C526.344 20.6399 525.957 20.5333 525.637 20.3199C525.33 20.1066 525.177 19.7266 525.177 19.1799C525.177 18.6199 525.33 18.2399 525.637 18.0399C525.957 17.8266 526.344 17.7199 526.797 17.7199ZM537.591 21.7999C538.764 21.7999 539.704 22.1199 540.411 22.7599C541.117 23.3866 541.471 24.3999 541.471 25.7999V32.9199H538.491V26.5399C538.491 25.7533 538.351 25.1666 538.071 24.7799C537.791 24.3799 537.344 24.1799 536.731 24.1799C535.824 24.1799 535.204 24.4933 534.871 25.1199C534.537 25.7333 534.371 26.6199 534.371 27.7799V32.9199H531.391V21.9999H533.671L534.071 23.3999H534.231C534.471 23.0266 534.764 22.7266 535.111 22.4999C535.457 22.2599 535.844 22.0866 536.271 21.9799C536.697 21.8599 537.137 21.7999 537.591 21.7999Z" fill="black"/>
</svg>
